<mxfile host="app.diagrams.net" agent="Mozilla/5.0 (Windows NT 10.0; Win64; x64) AppleWebKit/537.36 (KHTML, like Gecko) Chrome/133.0.0.0 Safari/537.36" version="26.0.4">
  <diagram id="R2lEEEUBdFMjLlhIrx00" name="Page-1">
    <mxGraphModel dx="3290" dy="2451" grid="1" gridSize="10" guides="1" tooltips="1" connect="1" arrows="1" fold="1" page="1" pageScale="1" pageWidth="850" pageHeight="1100" math="0" shadow="0" extFonts="Permanent Marker^https://fonts.googleapis.com/css?family=Permanent+Marker">
      <root>
        <mxCell id="0" />
        <mxCell id="1" parent="0" />
        <mxCell id="tTsTYngYizAKFm76DYmf-108" value="Dipartimenti" style="shape=table;startSize=30;container=1;collapsible=0;childLayout=tableLayout;strokeColor=default;fontSize=16;" vertex="1" parent="1">
          <mxGeometry x="-340" y="-265" width="200" height="176" as="geometry" />
        </mxCell>
        <mxCell id="tTsTYngYizAKFm76DYmf-137" style="shape=tableRow;horizontal=0;startSize=0;swimlaneHead=0;swimlaneBody=0;strokeColor=inherit;top=0;left=0;bottom=0;right=0;collapsible=0;dropTarget=0;fillColor=none;points=[[0,0.5],[1,0.5]];portConstraint=eastwest;fontSize=16;" vertex="1" parent="tTsTYngYizAKFm76DYmf-108">
          <mxGeometry y="30" width="200" height="73" as="geometry" />
        </mxCell>
        <mxCell id="tTsTYngYizAKFm76DYmf-138" value="ID_dipartimento" style="shape=partialRectangle;html=1;whiteSpace=wrap;connectable=0;strokeColor=inherit;overflow=hidden;fillColor=none;top=0;left=0;bottom=0;right=0;pointerEvents=1;fontSize=16;" vertex="1" parent="tTsTYngYizAKFm76DYmf-137">
          <mxGeometry width="130" height="73" as="geometry">
            <mxRectangle width="130" height="73" as="alternateBounds" />
          </mxGeometry>
        </mxCell>
        <mxCell id="tTsTYngYizAKFm76DYmf-139" value="ID" style="shape=partialRectangle;html=1;whiteSpace=wrap;connectable=0;strokeColor=inherit;overflow=hidden;fillColor=none;top=0;left=0;bottom=0;right=0;pointerEvents=1;fontSize=16;" vertex="1" parent="tTsTYngYizAKFm76DYmf-137">
          <mxGeometry x="130" width="70" height="73" as="geometry">
            <mxRectangle width="70" height="73" as="alternateBounds" />
          </mxGeometry>
        </mxCell>
        <mxCell id="tTsTYngYizAKFm76DYmf-133" style="shape=tableRow;horizontal=0;startSize=0;swimlaneHead=0;swimlaneBody=0;strokeColor=inherit;top=0;left=0;bottom=0;right=0;collapsible=0;dropTarget=0;fillColor=none;points=[[0,0.5],[1,0.5]];portConstraint=eastwest;fontSize=16;" vertex="1" parent="tTsTYngYizAKFm76DYmf-108">
          <mxGeometry y="103" width="200" height="73" as="geometry" />
        </mxCell>
        <mxCell id="tTsTYngYizAKFm76DYmf-134" value="nome" style="shape=partialRectangle;html=1;whiteSpace=wrap;connectable=0;strokeColor=inherit;overflow=hidden;fillColor=none;top=0;left=0;bottom=0;right=0;pointerEvents=1;fontSize=16;" vertex="1" parent="tTsTYngYizAKFm76DYmf-133">
          <mxGeometry width="130" height="73" as="geometry">
            <mxRectangle width="130" height="73" as="alternateBounds" />
          </mxGeometry>
        </mxCell>
        <mxCell id="tTsTYngYizAKFm76DYmf-135" style="shape=partialRectangle;html=1;whiteSpace=wrap;connectable=0;strokeColor=inherit;overflow=hidden;fillColor=none;top=0;left=0;bottom=0;right=0;pointerEvents=1;fontSize=16;" vertex="1" parent="tTsTYngYizAKFm76DYmf-133">
          <mxGeometry x="130" width="70" height="73" as="geometry">
            <mxRectangle width="70" height="73" as="alternateBounds" />
          </mxGeometry>
        </mxCell>
        <mxCell id="tTsTYngYizAKFm76DYmf-178" value="Corsi_Laurea" style="shape=table;startSize=30;container=1;collapsible=0;childLayout=tableLayout;strokeColor=default;fontSize=16;" vertex="1" parent="1">
          <mxGeometry x="190" y="-338.5" width="200" height="249" as="geometry" />
        </mxCell>
        <mxCell id="tTsTYngYizAKFm76DYmf-188" style="shape=tableRow;horizontal=0;startSize=0;swimlaneHead=0;swimlaneBody=0;strokeColor=inherit;top=0;left=0;bottom=0;right=0;collapsible=0;dropTarget=0;fillColor=none;points=[[0,0.5],[1,0.5]];portConstraint=eastwest;fontSize=16;" vertex="1" parent="tTsTYngYizAKFm76DYmf-178">
          <mxGeometry y="30" width="200" height="73" as="geometry" />
        </mxCell>
        <mxCell id="tTsTYngYizAKFm76DYmf-189" value="Nome" style="shape=partialRectangle;html=1;whiteSpace=wrap;connectable=0;strokeColor=inherit;overflow=hidden;fillColor=none;top=0;left=0;bottom=0;right=0;pointerEvents=1;fontSize=16;" vertex="1" parent="tTsTYngYizAKFm76DYmf-188">
          <mxGeometry width="130" height="73" as="geometry">
            <mxRectangle width="130" height="73" as="alternateBounds" />
          </mxGeometry>
        </mxCell>
        <mxCell id="tTsTYngYizAKFm76DYmf-190" style="shape=partialRectangle;html=1;whiteSpace=wrap;connectable=0;strokeColor=inherit;overflow=hidden;fillColor=none;top=0;left=0;bottom=0;right=0;pointerEvents=1;fontSize=16;" vertex="1" parent="tTsTYngYizAKFm76DYmf-188">
          <mxGeometry x="130" width="70" height="73" as="geometry">
            <mxRectangle width="70" height="73" as="alternateBounds" />
          </mxGeometry>
        </mxCell>
        <mxCell id="tTsTYngYizAKFm76DYmf-185" style="shape=tableRow;horizontal=0;startSize=0;swimlaneHead=0;swimlaneBody=0;strokeColor=inherit;top=0;left=0;bottom=0;right=0;collapsible=0;dropTarget=0;fillColor=none;points=[[0,0.5],[1,0.5]];portConstraint=eastwest;fontSize=16;" vertex="1" parent="tTsTYngYizAKFm76DYmf-178">
          <mxGeometry y="103" width="200" height="73" as="geometry" />
        </mxCell>
        <mxCell id="tTsTYngYizAKFm76DYmf-186" value="Id_dipartimento" style="shape=partialRectangle;html=1;whiteSpace=wrap;connectable=0;strokeColor=inherit;overflow=hidden;fillColor=none;top=0;left=0;bottom=0;right=0;pointerEvents=1;fontSize=16;" vertex="1" parent="tTsTYngYizAKFm76DYmf-185">
          <mxGeometry width="130" height="73" as="geometry">
            <mxRectangle width="130" height="73" as="alternateBounds" />
          </mxGeometry>
        </mxCell>
        <mxCell id="tTsTYngYizAKFm76DYmf-187" value="FK" style="shape=partialRectangle;html=1;whiteSpace=wrap;connectable=0;strokeColor=inherit;overflow=hidden;fillColor=none;top=0;left=0;bottom=0;right=0;pointerEvents=1;fontSize=16;" vertex="1" parent="tTsTYngYizAKFm76DYmf-185">
          <mxGeometry x="130" width="70" height="73" as="geometry">
            <mxRectangle width="70" height="73" as="alternateBounds" />
          </mxGeometry>
        </mxCell>
        <mxCell id="tTsTYngYizAKFm76DYmf-191" style="shape=tableRow;horizontal=0;startSize=0;swimlaneHead=0;swimlaneBody=0;strokeColor=inherit;top=0;left=0;bottom=0;right=0;collapsible=0;dropTarget=0;fillColor=none;points=[[0,0.5],[1,0.5]];portConstraint=eastwest;fontSize=16;" vertex="1" parent="tTsTYngYizAKFm76DYmf-178">
          <mxGeometry y="176" width="200" height="73" as="geometry" />
        </mxCell>
        <mxCell id="tTsTYngYizAKFm76DYmf-192" value="ID_corso_laurea" style="shape=partialRectangle;html=1;whiteSpace=wrap;connectable=0;strokeColor=inherit;overflow=hidden;fillColor=none;top=0;left=0;bottom=0;right=0;pointerEvents=1;fontSize=16;" vertex="1" parent="tTsTYngYizAKFm76DYmf-191">
          <mxGeometry width="130" height="73" as="geometry">
            <mxRectangle width="130" height="73" as="alternateBounds" />
          </mxGeometry>
        </mxCell>
        <mxCell id="tTsTYngYizAKFm76DYmf-193" value="ID" style="shape=partialRectangle;html=1;whiteSpace=wrap;connectable=0;strokeColor=inherit;overflow=hidden;fillColor=none;top=0;left=0;bottom=0;right=0;pointerEvents=1;fontSize=16;" vertex="1" parent="tTsTYngYizAKFm76DYmf-191">
          <mxGeometry x="130" width="70" height="73" as="geometry">
            <mxRectangle width="70" height="73" as="alternateBounds" />
          </mxGeometry>
        </mxCell>
        <mxCell id="tTsTYngYizAKFm76DYmf-311" style="edgeStyle=none;curved=1;rounded=0;orthogonalLoop=1;jettySize=auto;html=1;exitX=0.5;exitY=1;exitDx=0;exitDy=0;entryX=1;entryY=0.5;entryDx=0;entryDy=0;fontSize=12;startSize=8;endSize=8;" edge="1" parent="1" source="tTsTYngYizAKFm76DYmf-335" target="tTsTYngYizAKFm76DYmf-298">
          <mxGeometry relative="1" as="geometry">
            <Array as="points">
              <mxPoint x="140" y="320" />
            </Array>
          </mxGeometry>
        </mxCell>
        <mxCell id="tTsTYngYizAKFm76DYmf-312" value="&lt;font style=&quot;font-size: 20px;&quot;&gt;N&lt;/font&gt;" style="edgeLabel;html=1;align=center;verticalAlign=middle;resizable=0;points=[];fontSize=12;" vertex="1" connectable="0" parent="tTsTYngYizAKFm76DYmf-311">
          <mxGeometry x="-0.1571" y="-69" relative="1" as="geometry">
            <mxPoint x="44" y="-21" as="offset" />
          </mxGeometry>
        </mxCell>
        <mxCell id="tTsTYngYizAKFm76DYmf-197" value="" style="rhombus;whiteSpace=wrap;html=1;" vertex="1" parent="1">
          <mxGeometry x="-30" y="-239" width="80" height="80" as="geometry" />
        </mxCell>
        <mxCell id="tTsTYngYizAKFm76DYmf-198" value="" style="endArrow=none;html=1;rounded=0;fontSize=12;startSize=8;endSize=8;curved=1;exitX=1;exitY=0.5;exitDx=0;exitDy=0;entryX=0;entryY=0.5;entryDx=0;entryDy=0;" edge="1" parent="1" source="tTsTYngYizAKFm76DYmf-137" target="tTsTYngYizAKFm76DYmf-197">
          <mxGeometry width="50" height="50" relative="1" as="geometry">
            <mxPoint x="170" y="-240" as="sourcePoint" />
            <mxPoint x="220" y="-290" as="targetPoint" />
          </mxGeometry>
        </mxCell>
        <mxCell id="tTsTYngYizAKFm76DYmf-202" value="&lt;font style=&quot;font-size: 20px;&quot;&gt;1&lt;/font&gt;" style="edgeLabel;html=1;align=center;verticalAlign=middle;resizable=0;points=[];fontSize=12;" vertex="1" connectable="0" parent="tTsTYngYizAKFm76DYmf-198">
          <mxGeometry x="-0.0573" relative="1" as="geometry">
            <mxPoint as="offset" />
          </mxGeometry>
        </mxCell>
        <mxCell id="tTsTYngYizAKFm76DYmf-200" value="" style="endArrow=none;html=1;rounded=0;fontSize=12;startSize=8;endSize=8;curved=1;exitX=1;exitY=0.5;exitDx=0;exitDy=0;entryX=0;entryY=0.5;entryDx=0;entryDy=0;" edge="1" parent="1" source="tTsTYngYizAKFm76DYmf-197" target="tTsTYngYizAKFm76DYmf-185">
          <mxGeometry width="50" height="50" relative="1" as="geometry">
            <mxPoint x="170" y="-240" as="sourcePoint" />
            <mxPoint x="220" y="-290" as="targetPoint" />
            <Array as="points" />
          </mxGeometry>
        </mxCell>
        <mxCell id="tTsTYngYizAKFm76DYmf-201" value="&lt;font style=&quot;font-size: 20px;&quot;&gt;N&lt;/font&gt;" style="edgeLabel;html=1;align=center;verticalAlign=middle;resizable=0;points=[];fontSize=12;" vertex="1" connectable="0" parent="tTsTYngYizAKFm76DYmf-200">
          <mxGeometry x="-0.0272" y="1" relative="1" as="geometry">
            <mxPoint as="offset" />
          </mxGeometry>
        </mxCell>
        <mxCell id="tTsTYngYizAKFm76DYmf-204" value="Corsi" style="shape=table;startSize=30;container=1;collapsible=0;childLayout=tableLayout;strokeColor=default;fontSize=16;" vertex="1" parent="1">
          <mxGeometry x="750" y="-195.5" width="210" height="249" as="geometry" />
        </mxCell>
        <mxCell id="tTsTYngYizAKFm76DYmf-211" style="shape=tableRow;horizontal=0;startSize=0;swimlaneHead=0;swimlaneBody=0;strokeColor=inherit;top=0;left=0;bottom=0;right=0;collapsible=0;dropTarget=0;fillColor=none;points=[[0,0.5],[1,0.5]];portConstraint=eastwest;fontSize=16;" vertex="1" parent="tTsTYngYizAKFm76DYmf-204">
          <mxGeometry y="30" width="210" height="73" as="geometry" />
        </mxCell>
        <mxCell id="tTsTYngYizAKFm76DYmf-212" value="ID_corso_laurea" style="shape=partialRectangle;html=1;whiteSpace=wrap;connectable=0;strokeColor=inherit;overflow=hidden;fillColor=none;top=0;left=0;bottom=0;right=0;pointerEvents=1;fontSize=16;" vertex="1" parent="tTsTYngYizAKFm76DYmf-211">
          <mxGeometry width="130" height="73" as="geometry">
            <mxRectangle width="130" height="73" as="alternateBounds" />
          </mxGeometry>
        </mxCell>
        <mxCell id="tTsTYngYizAKFm76DYmf-213" value="FK" style="shape=partialRectangle;html=1;whiteSpace=wrap;connectable=0;strokeColor=inherit;overflow=hidden;fillColor=none;top=0;left=0;bottom=0;right=0;pointerEvents=1;fontSize=16;" vertex="1" parent="tTsTYngYizAKFm76DYmf-211">
          <mxGeometry x="130" width="80" height="73" as="geometry">
            <mxRectangle width="80" height="73" as="alternateBounds" />
          </mxGeometry>
        </mxCell>
        <mxCell id="tTsTYngYizAKFm76DYmf-208" style="shape=tableRow;horizontal=0;startSize=0;swimlaneHead=0;swimlaneBody=0;strokeColor=inherit;top=0;left=0;bottom=0;right=0;collapsible=0;dropTarget=0;fillColor=none;points=[[0,0.5],[1,0.5]];portConstraint=eastwest;fontSize=16;" vertex="1" parent="tTsTYngYizAKFm76DYmf-204">
          <mxGeometry y="103" width="210" height="73" as="geometry" />
        </mxCell>
        <mxCell id="tTsTYngYizAKFm76DYmf-209" value="Nome" style="shape=partialRectangle;html=1;whiteSpace=wrap;connectable=0;strokeColor=inherit;overflow=hidden;fillColor=none;top=0;left=0;bottom=0;right=0;pointerEvents=1;fontSize=16;" vertex="1" parent="tTsTYngYizAKFm76DYmf-208">
          <mxGeometry width="130" height="73" as="geometry">
            <mxRectangle width="130" height="73" as="alternateBounds" />
          </mxGeometry>
        </mxCell>
        <mxCell id="tTsTYngYizAKFm76DYmf-210" style="shape=partialRectangle;html=1;whiteSpace=wrap;connectable=0;strokeColor=inherit;overflow=hidden;fillColor=none;top=0;left=0;bottom=0;right=0;pointerEvents=1;fontSize=16;" vertex="1" parent="tTsTYngYizAKFm76DYmf-208">
          <mxGeometry x="130" width="80" height="73" as="geometry">
            <mxRectangle width="80" height="73" as="alternateBounds" />
          </mxGeometry>
        </mxCell>
        <mxCell id="tTsTYngYizAKFm76DYmf-205" style="shape=tableRow;horizontal=0;startSize=0;swimlaneHead=0;swimlaneBody=0;strokeColor=inherit;top=0;left=0;bottom=0;right=0;collapsible=0;dropTarget=0;fillColor=none;points=[[0,0.5],[1,0.5]];portConstraint=eastwest;fontSize=16;" vertex="1" parent="tTsTYngYizAKFm76DYmf-204">
          <mxGeometry y="176" width="210" height="73" as="geometry" />
        </mxCell>
        <mxCell id="tTsTYngYizAKFm76DYmf-206" value="ID_corso" style="shape=partialRectangle;html=1;whiteSpace=wrap;connectable=0;strokeColor=inherit;overflow=hidden;fillColor=none;top=0;left=0;bottom=0;right=0;pointerEvents=1;fontSize=16;" vertex="1" parent="tTsTYngYizAKFm76DYmf-205">
          <mxGeometry width="130" height="73" as="geometry">
            <mxRectangle width="130" height="73" as="alternateBounds" />
          </mxGeometry>
        </mxCell>
        <mxCell id="tTsTYngYizAKFm76DYmf-207" value="ID" style="shape=partialRectangle;html=1;whiteSpace=wrap;connectable=0;strokeColor=inherit;overflow=hidden;fillColor=none;top=0;left=0;bottom=0;right=0;pointerEvents=1;fontSize=16;" vertex="1" parent="tTsTYngYizAKFm76DYmf-205">
          <mxGeometry x="130" width="80" height="73" as="geometry">
            <mxRectangle width="80" height="73" as="alternateBounds" />
          </mxGeometry>
        </mxCell>
        <mxCell id="tTsTYngYizAKFm76DYmf-282" style="edgeStyle=none;curved=1;rounded=0;orthogonalLoop=1;jettySize=auto;html=1;exitX=0.5;exitY=1;exitDx=0;exitDy=0;entryX=0;entryY=0.5;entryDx=0;entryDy=0;fontSize=12;startSize=8;endSize=8;" edge="1" parent="1" source="tTsTYngYizAKFm76DYmf-336" target="tTsTYngYizAKFm76DYmf-275">
          <mxGeometry relative="1" as="geometry">
            <Array as="points">
              <mxPoint x="720" y="240" />
            </Array>
          </mxGeometry>
        </mxCell>
        <mxCell id="tTsTYngYizAKFm76DYmf-284" value="&lt;font style=&quot;font-size: 20px;&quot;&gt;N&lt;/font&gt;" style="edgeLabel;html=1;align=center;verticalAlign=middle;resizable=0;points=[];fontSize=12;" vertex="1" connectable="0" parent="tTsTYngYizAKFm76DYmf-282">
          <mxGeometry x="-0.2135" y="-13" relative="1" as="geometry">
            <mxPoint x="11" y="-16" as="offset" />
          </mxGeometry>
        </mxCell>
        <mxCell id="tTsTYngYizAKFm76DYmf-214" value="" style="rhombus;whiteSpace=wrap;html=1;" vertex="1" parent="1">
          <mxGeometry x="500" y="-166" width="80" height="80" as="geometry" />
        </mxCell>
        <mxCell id="tTsTYngYizAKFm76DYmf-217" value="" style="endArrow=none;html=1;rounded=0;fontSize=12;startSize=8;endSize=8;curved=1;entryX=0;entryY=0.5;entryDx=0;entryDy=0;exitX=1;exitY=0.5;exitDx=0;exitDy=0;" edge="1" parent="1" source="tTsTYngYizAKFm76DYmf-191" target="tTsTYngYizAKFm76DYmf-214">
          <mxGeometry width="50" height="50" relative="1" as="geometry">
            <mxPoint x="460" y="-209" as="sourcePoint" />
            <mxPoint x="540" y="-139.25" as="targetPoint" />
          </mxGeometry>
        </mxCell>
        <mxCell id="tTsTYngYizAKFm76DYmf-218" value="&lt;font style=&quot;font-size: 20px;&quot;&gt;1&lt;/font&gt;" style="edgeLabel;html=1;align=center;verticalAlign=middle;resizable=0;points=[];fontSize=12;" vertex="1" connectable="0" parent="tTsTYngYizAKFm76DYmf-217">
          <mxGeometry x="-0.1642" relative="1" as="geometry">
            <mxPoint as="offset" />
          </mxGeometry>
        </mxCell>
        <mxCell id="tTsTYngYizAKFm76DYmf-219" value="" style="endArrow=none;html=1;rounded=0;fontSize=12;startSize=8;endSize=8;curved=1;exitX=1;exitY=0.5;exitDx=0;exitDy=0;entryX=0;entryY=0.5;entryDx=0;entryDy=0;" edge="1" parent="1" source="tTsTYngYizAKFm76DYmf-214" target="tTsTYngYizAKFm76DYmf-211">
          <mxGeometry width="50" height="50" relative="1" as="geometry">
            <mxPoint x="540" y="-180" as="sourcePoint" />
            <mxPoint x="590" y="-230" as="targetPoint" />
          </mxGeometry>
        </mxCell>
        <mxCell id="tTsTYngYizAKFm76DYmf-220" value="&lt;font style=&quot;font-size: 20px;&quot;&gt;N&lt;/font&gt;" style="edgeLabel;html=1;align=center;verticalAlign=middle;resizable=0;points=[];fontSize=12;" vertex="1" connectable="0" parent="tTsTYngYizAKFm76DYmf-219">
          <mxGeometry x="0.008" relative="1" as="geometry">
            <mxPoint as="offset" />
          </mxGeometry>
        </mxCell>
        <mxCell id="tTsTYngYizAKFm76DYmf-221" value="Corso_Docente" style="shape=table;startSize=30;container=1;collapsible=0;childLayout=tableLayout;strokeColor=default;fontSize=16;" vertex="1" parent="1">
          <mxGeometry x="1180" y="-122.5" width="200" height="176" as="geometry" />
        </mxCell>
        <mxCell id="tTsTYngYizAKFm76DYmf-225" style="shape=tableRow;horizontal=0;startSize=0;swimlaneHead=0;swimlaneBody=0;strokeColor=inherit;top=0;left=0;bottom=0;right=0;collapsible=0;dropTarget=0;fillColor=none;points=[[0,0.5],[1,0.5]];portConstraint=eastwest;fontSize=16;" vertex="1" parent="tTsTYngYizAKFm76DYmf-221">
          <mxGeometry y="30" width="200" height="73" as="geometry" />
        </mxCell>
        <mxCell id="tTsTYngYizAKFm76DYmf-226" value="ID_Docente" style="shape=partialRectangle;html=1;whiteSpace=wrap;connectable=0;strokeColor=inherit;overflow=hidden;fillColor=none;top=0;left=0;bottom=0;right=0;pointerEvents=1;fontSize=16;" vertex="1" parent="tTsTYngYizAKFm76DYmf-225">
          <mxGeometry width="130" height="73" as="geometry">
            <mxRectangle width="130" height="73" as="alternateBounds" />
          </mxGeometry>
        </mxCell>
        <mxCell id="tTsTYngYizAKFm76DYmf-227" value="FK" style="shape=partialRectangle;html=1;whiteSpace=wrap;connectable=0;strokeColor=inherit;overflow=hidden;fillColor=none;top=0;left=0;bottom=0;right=0;pointerEvents=1;fontSize=16;" vertex="1" parent="tTsTYngYizAKFm76DYmf-225">
          <mxGeometry x="130" width="70" height="73" as="geometry">
            <mxRectangle width="70" height="73" as="alternateBounds" />
          </mxGeometry>
        </mxCell>
        <mxCell id="tTsTYngYizAKFm76DYmf-222" style="shape=tableRow;horizontal=0;startSize=0;swimlaneHead=0;swimlaneBody=0;strokeColor=inherit;top=0;left=0;bottom=0;right=0;collapsible=0;dropTarget=0;fillColor=none;points=[[0,0.5],[1,0.5]];portConstraint=eastwest;fontSize=16;" vertex="1" parent="tTsTYngYizAKFm76DYmf-221">
          <mxGeometry y="103" width="200" height="73" as="geometry" />
        </mxCell>
        <mxCell id="tTsTYngYizAKFm76DYmf-223" value="ID_corso" style="shape=partialRectangle;html=1;whiteSpace=wrap;connectable=0;strokeColor=inherit;overflow=hidden;fillColor=none;top=0;left=0;bottom=0;right=0;pointerEvents=1;fontSize=16;" vertex="1" parent="tTsTYngYizAKFm76DYmf-222">
          <mxGeometry width="130" height="73" as="geometry">
            <mxRectangle width="130" height="73" as="alternateBounds" />
          </mxGeometry>
        </mxCell>
        <mxCell id="tTsTYngYizAKFm76DYmf-224" value="FK" style="shape=partialRectangle;html=1;whiteSpace=wrap;connectable=0;strokeColor=inherit;overflow=hidden;fillColor=none;top=0;left=0;bottom=0;right=0;pointerEvents=1;fontSize=16;" vertex="1" parent="tTsTYngYizAKFm76DYmf-222">
          <mxGeometry x="130" width="70" height="73" as="geometry">
            <mxRectangle width="70" height="73" as="alternateBounds" />
          </mxGeometry>
        </mxCell>
        <mxCell id="tTsTYngYizAKFm76DYmf-231" value="" style="rhombus;whiteSpace=wrap;html=1;" vertex="1" parent="1">
          <mxGeometry x="1030" y="-23" width="80" height="80" as="geometry" />
        </mxCell>
        <mxCell id="tTsTYngYizAKFm76DYmf-236" value="" style="endArrow=none;html=1;rounded=0;fontSize=12;startSize=8;endSize=8;curved=1;exitX=1;exitY=0.5;exitDx=0;exitDy=0;entryX=0;entryY=0.5;entryDx=0;entryDy=0;" edge="1" parent="1" source="tTsTYngYizAKFm76DYmf-231" target="tTsTYngYizAKFm76DYmf-222">
          <mxGeometry width="50" height="50" relative="1" as="geometry">
            <mxPoint x="1040" y="100" as="sourcePoint" />
            <mxPoint x="1090" y="50" as="targetPoint" />
          </mxGeometry>
        </mxCell>
        <mxCell id="tTsTYngYizAKFm76DYmf-267" value="&lt;font style=&quot;font-size: 20px;&quot;&gt;N&lt;/font&gt;" style="edgeLabel;html=1;align=center;verticalAlign=middle;resizable=0;points=[];fontSize=12;" vertex="1" connectable="0" parent="tTsTYngYizAKFm76DYmf-236">
          <mxGeometry x="-0.2343" y="2" relative="1" as="geometry">
            <mxPoint as="offset" />
          </mxGeometry>
        </mxCell>
        <mxCell id="tTsTYngYizAKFm76DYmf-237" value="Docenti" style="shape=table;startSize=30;container=1;collapsible=0;childLayout=tableLayout;strokeColor=default;fontSize=16;" vertex="1" parent="1">
          <mxGeometry x="1640" y="-122.5" width="200" height="322" as="geometry" />
        </mxCell>
        <mxCell id="tTsTYngYizAKFm76DYmf-238" style="shape=tableRow;horizontal=0;startSize=0;swimlaneHead=0;swimlaneBody=0;strokeColor=inherit;top=0;left=0;bottom=0;right=0;collapsible=0;dropTarget=0;fillColor=none;points=[[0,0.5],[1,0.5]];portConstraint=eastwest;fontSize=16;" vertex="1" parent="tTsTYngYizAKFm76DYmf-237">
          <mxGeometry y="30" width="200" height="74" as="geometry" />
        </mxCell>
        <mxCell id="tTsTYngYizAKFm76DYmf-239" value="ID_docente" style="shape=partialRectangle;html=1;whiteSpace=wrap;connectable=0;strokeColor=inherit;overflow=hidden;fillColor=none;top=0;left=0;bottom=0;right=0;pointerEvents=1;fontSize=16;" vertex="1" parent="tTsTYngYizAKFm76DYmf-238">
          <mxGeometry width="130" height="74" as="geometry">
            <mxRectangle width="130" height="74" as="alternateBounds" />
          </mxGeometry>
        </mxCell>
        <mxCell id="tTsTYngYizAKFm76DYmf-240" value="ID" style="shape=partialRectangle;html=1;whiteSpace=wrap;connectable=0;strokeColor=inherit;overflow=hidden;fillColor=none;top=0;left=0;bottom=0;right=0;pointerEvents=1;fontSize=16;" vertex="1" parent="tTsTYngYizAKFm76DYmf-238">
          <mxGeometry x="130" width="70" height="74" as="geometry">
            <mxRectangle width="70" height="74" as="alternateBounds" />
          </mxGeometry>
        </mxCell>
        <mxCell id="tTsTYngYizAKFm76DYmf-241" style="shape=tableRow;horizontal=0;startSize=0;swimlaneHead=0;swimlaneBody=0;strokeColor=inherit;top=0;left=0;bottom=0;right=0;collapsible=0;dropTarget=0;fillColor=none;points=[[0,0.5],[1,0.5]];portConstraint=eastwest;fontSize=16;" vertex="1" parent="tTsTYngYizAKFm76DYmf-237">
          <mxGeometry y="104" width="200" height="72" as="geometry" />
        </mxCell>
        <mxCell id="tTsTYngYizAKFm76DYmf-242" value="Nome" style="shape=partialRectangle;html=1;whiteSpace=wrap;connectable=0;strokeColor=inherit;overflow=hidden;fillColor=none;top=0;left=0;bottom=0;right=0;pointerEvents=1;fontSize=16;" vertex="1" parent="tTsTYngYizAKFm76DYmf-241">
          <mxGeometry width="130" height="72" as="geometry">
            <mxRectangle width="130" height="72" as="alternateBounds" />
          </mxGeometry>
        </mxCell>
        <mxCell id="tTsTYngYizAKFm76DYmf-243" style="shape=partialRectangle;html=1;whiteSpace=wrap;connectable=0;strokeColor=inherit;overflow=hidden;fillColor=none;top=0;left=0;bottom=0;right=0;pointerEvents=1;fontSize=16;" vertex="1" parent="tTsTYngYizAKFm76DYmf-241">
          <mxGeometry x="130" width="70" height="72" as="geometry">
            <mxRectangle width="70" height="72" as="alternateBounds" />
          </mxGeometry>
        </mxCell>
        <mxCell id="tTsTYngYizAKFm76DYmf-244" style="shape=tableRow;horizontal=0;startSize=0;swimlaneHead=0;swimlaneBody=0;strokeColor=inherit;top=0;left=0;bottom=0;right=0;collapsible=0;dropTarget=0;fillColor=none;points=[[0,0.5],[1,0.5]];portConstraint=eastwest;fontSize=16;" vertex="1" parent="tTsTYngYizAKFm76DYmf-237">
          <mxGeometry y="176" width="200" height="74" as="geometry" />
        </mxCell>
        <mxCell id="tTsTYngYizAKFm76DYmf-245" value="Cognome" style="shape=partialRectangle;html=1;whiteSpace=wrap;connectable=0;strokeColor=inherit;overflow=hidden;fillColor=none;top=0;left=0;bottom=0;right=0;pointerEvents=1;fontSize=16;" vertex="1" parent="tTsTYngYizAKFm76DYmf-244">
          <mxGeometry width="130" height="74" as="geometry">
            <mxRectangle width="130" height="74" as="alternateBounds" />
          </mxGeometry>
        </mxCell>
        <mxCell id="tTsTYngYizAKFm76DYmf-246" value="" style="shape=partialRectangle;html=1;whiteSpace=wrap;connectable=0;strokeColor=inherit;overflow=hidden;fillColor=none;top=0;left=0;bottom=0;right=0;pointerEvents=1;fontSize=16;" vertex="1" parent="tTsTYngYizAKFm76DYmf-244">
          <mxGeometry x="130" width="70" height="74" as="geometry">
            <mxRectangle width="70" height="74" as="alternateBounds" />
          </mxGeometry>
        </mxCell>
        <mxCell id="tTsTYngYizAKFm76DYmf-247" style="shape=tableRow;horizontal=0;startSize=0;swimlaneHead=0;swimlaneBody=0;strokeColor=inherit;top=0;left=0;bottom=0;right=0;collapsible=0;dropTarget=0;fillColor=none;points=[[0,0.5],[1,0.5]];portConstraint=eastwest;fontSize=16;" vertex="1" parent="tTsTYngYizAKFm76DYmf-237">
          <mxGeometry y="250" width="200" height="72" as="geometry" />
        </mxCell>
        <mxCell id="tTsTYngYizAKFm76DYmf-248" value="Email" style="shape=partialRectangle;html=1;whiteSpace=wrap;connectable=0;strokeColor=inherit;overflow=hidden;fillColor=none;top=0;left=0;bottom=0;right=0;pointerEvents=1;fontSize=16;" vertex="1" parent="tTsTYngYizAKFm76DYmf-247">
          <mxGeometry width="130" height="72" as="geometry">
            <mxRectangle width="130" height="72" as="alternateBounds" />
          </mxGeometry>
        </mxCell>
        <mxCell id="tTsTYngYizAKFm76DYmf-249" style="shape=partialRectangle;html=1;whiteSpace=wrap;connectable=0;strokeColor=inherit;overflow=hidden;fillColor=none;top=0;left=0;bottom=0;right=0;pointerEvents=1;fontSize=16;" vertex="1" parent="tTsTYngYizAKFm76DYmf-247">
          <mxGeometry x="130" width="70" height="72" as="geometry">
            <mxRectangle width="70" height="72" as="alternateBounds" />
          </mxGeometry>
        </mxCell>
        <mxCell id="tTsTYngYizAKFm76DYmf-250" value="" style="rhombus;whiteSpace=wrap;html=1;" vertex="1" parent="1">
          <mxGeometry x="1460" y="-96" width="80" height="80" as="geometry" />
        </mxCell>
        <mxCell id="tTsTYngYizAKFm76DYmf-251" value="" style="endArrow=none;html=1;rounded=0;fontSize=12;startSize=8;endSize=8;curved=1;exitX=1;exitY=0.5;exitDx=0;exitDy=0;entryX=0;entryY=0.5;entryDx=0;entryDy=0;" edge="1" parent="1" source="tTsTYngYizAKFm76DYmf-205" target="tTsTYngYizAKFm76DYmf-231">
          <mxGeometry width="50" height="50" relative="1" as="geometry">
            <mxPoint x="1100" y="-190" as="sourcePoint" />
            <mxPoint x="1030" y="-220" as="targetPoint" />
          </mxGeometry>
        </mxCell>
        <mxCell id="tTsTYngYizAKFm76DYmf-266" value="&lt;font style=&quot;font-size: 20px;&quot;&gt;N&lt;/font&gt;" style="edgeLabel;html=1;align=center;verticalAlign=middle;resizable=0;points=[];fontSize=12;" vertex="1" connectable="0" parent="tTsTYngYizAKFm76DYmf-251">
          <mxGeometry x="0.0219" y="-3" relative="1" as="geometry">
            <mxPoint as="offset" />
          </mxGeometry>
        </mxCell>
        <mxCell id="tTsTYngYizAKFm76DYmf-252" value="" style="endArrow=none;html=1;rounded=0;fontSize=12;startSize=8;endSize=8;curved=1;entryX=0;entryY=0.5;entryDx=0;entryDy=0;exitX=1;exitY=0.5;exitDx=0;exitDy=0;" edge="1" parent="1" source="tTsTYngYizAKFm76DYmf-225" target="tTsTYngYizAKFm76DYmf-250">
          <mxGeometry width="50" height="50" relative="1" as="geometry">
            <mxPoint x="1310" y="-190" as="sourcePoint" />
            <mxPoint x="1360" y="-240" as="targetPoint" />
          </mxGeometry>
        </mxCell>
        <mxCell id="tTsTYngYizAKFm76DYmf-269" value="&lt;span style=&quot;font-size: 20px;&quot;&gt;N&lt;/span&gt;" style="edgeLabel;html=1;align=center;verticalAlign=middle;resizable=0;points=[];fontSize=12;" vertex="1" connectable="0" parent="tTsTYngYizAKFm76DYmf-252">
          <mxGeometry x="-0.0982" y="-1" relative="1" as="geometry">
            <mxPoint as="offset" />
          </mxGeometry>
        </mxCell>
        <mxCell id="tTsTYngYizAKFm76DYmf-253" value="" style="endArrow=none;html=1;rounded=0;fontSize=12;startSize=8;endSize=8;curved=1;entryX=0;entryY=0.5;entryDx=0;entryDy=0;exitX=1;exitY=0.5;exitDx=0;exitDy=0;" edge="1" parent="1" source="tTsTYngYizAKFm76DYmf-250" target="tTsTYngYizAKFm76DYmf-238">
          <mxGeometry width="50" height="50" relative="1" as="geometry">
            <mxPoint x="1370" y="-130" as="sourcePoint" />
            <mxPoint x="1430" y="-130" as="targetPoint" />
          </mxGeometry>
        </mxCell>
        <mxCell id="tTsTYngYizAKFm76DYmf-270" value="&lt;font style=&quot;font-size: 20px;&quot;&gt;N&lt;/font&gt;" style="edgeLabel;html=1;align=center;verticalAlign=middle;resizable=0;points=[];fontSize=12;" vertex="1" connectable="0" parent="tTsTYngYizAKFm76DYmf-253">
          <mxGeometry x="0.093" y="1" relative="1" as="geometry">
            <mxPoint as="offset" />
          </mxGeometry>
        </mxCell>
        <mxCell id="tTsTYngYizAKFm76DYmf-271" value="Esami" style="shape=table;startSize=30;container=1;collapsible=0;childLayout=tableLayout;strokeColor=default;fontSize=16;" vertex="1" parent="1">
          <mxGeometry x="880" y="150" width="210" height="249" as="geometry" />
        </mxCell>
        <mxCell id="tTsTYngYizAKFm76DYmf-275" style="shape=tableRow;horizontal=0;startSize=0;swimlaneHead=0;swimlaneBody=0;strokeColor=inherit;top=0;left=0;bottom=0;right=0;collapsible=0;dropTarget=0;fillColor=none;points=[[0,0.5],[1,0.5]];portConstraint=eastwest;fontSize=16;" vertex="1" parent="tTsTYngYizAKFm76DYmf-271">
          <mxGeometry y="30" width="210" height="73" as="geometry" />
        </mxCell>
        <mxCell id="tTsTYngYizAKFm76DYmf-276" value="ID_Corso" style="shape=partialRectangle;html=1;whiteSpace=wrap;connectable=0;strokeColor=inherit;overflow=hidden;fillColor=none;top=0;left=0;bottom=0;right=0;pointerEvents=1;fontSize=16;" vertex="1" parent="tTsTYngYizAKFm76DYmf-275">
          <mxGeometry width="130" height="73" as="geometry">
            <mxRectangle width="130" height="73" as="alternateBounds" />
          </mxGeometry>
        </mxCell>
        <mxCell id="tTsTYngYizAKFm76DYmf-277" value="FK" style="shape=partialRectangle;html=1;whiteSpace=wrap;connectable=0;strokeColor=inherit;overflow=hidden;fillColor=none;top=0;left=0;bottom=0;right=0;pointerEvents=1;fontSize=16;" vertex="1" parent="tTsTYngYizAKFm76DYmf-275">
          <mxGeometry x="130" width="80" height="73" as="geometry">
            <mxRectangle width="80" height="73" as="alternateBounds" />
          </mxGeometry>
        </mxCell>
        <mxCell id="tTsTYngYizAKFm76DYmf-278" style="shape=tableRow;horizontal=0;startSize=0;swimlaneHead=0;swimlaneBody=0;strokeColor=inherit;top=0;left=0;bottom=0;right=0;collapsible=0;dropTarget=0;fillColor=none;points=[[0,0.5],[1,0.5]];portConstraint=eastwest;fontSize=16;" vertex="1" parent="tTsTYngYizAKFm76DYmf-271">
          <mxGeometry y="103" width="210" height="73" as="geometry" />
        </mxCell>
        <mxCell id="tTsTYngYizAKFm76DYmf-279" value="Data" style="shape=partialRectangle;html=1;whiteSpace=wrap;connectable=0;strokeColor=inherit;overflow=hidden;fillColor=none;top=0;left=0;bottom=0;right=0;pointerEvents=1;fontSize=16;" vertex="1" parent="tTsTYngYizAKFm76DYmf-278">
          <mxGeometry width="130" height="73" as="geometry">
            <mxRectangle width="130" height="73" as="alternateBounds" />
          </mxGeometry>
        </mxCell>
        <mxCell id="tTsTYngYizAKFm76DYmf-280" value="" style="shape=partialRectangle;html=1;whiteSpace=wrap;connectable=0;strokeColor=inherit;overflow=hidden;fillColor=none;top=0;left=0;bottom=0;right=0;pointerEvents=1;fontSize=16;" vertex="1" parent="tTsTYngYizAKFm76DYmf-278">
          <mxGeometry x="130" width="80" height="73" as="geometry">
            <mxRectangle width="80" height="73" as="alternateBounds" />
          </mxGeometry>
        </mxCell>
        <mxCell id="tTsTYngYizAKFm76DYmf-272" style="shape=tableRow;horizontal=0;startSize=0;swimlaneHead=0;swimlaneBody=0;strokeColor=inherit;top=0;left=0;bottom=0;right=0;collapsible=0;dropTarget=0;fillColor=none;points=[[0,0.5],[1,0.5]];portConstraint=eastwest;fontSize=16;" vertex="1" parent="tTsTYngYizAKFm76DYmf-271">
          <mxGeometry y="176" width="210" height="73" as="geometry" />
        </mxCell>
        <mxCell id="tTsTYngYizAKFm76DYmf-273" value="ID_Esame" style="shape=partialRectangle;html=1;whiteSpace=wrap;connectable=0;strokeColor=inherit;overflow=hidden;fillColor=none;top=0;left=0;bottom=0;right=0;pointerEvents=1;fontSize=16;" vertex="1" parent="tTsTYngYizAKFm76DYmf-272">
          <mxGeometry width="130" height="73" as="geometry">
            <mxRectangle width="130" height="73" as="alternateBounds" />
          </mxGeometry>
        </mxCell>
        <mxCell id="tTsTYngYizAKFm76DYmf-274" value="ID" style="shape=partialRectangle;html=1;whiteSpace=wrap;connectable=0;strokeColor=inherit;overflow=hidden;fillColor=none;top=0;left=0;bottom=0;right=0;pointerEvents=1;fontSize=16;" vertex="1" parent="tTsTYngYizAKFm76DYmf-272">
          <mxGeometry x="130" width="80" height="73" as="geometry">
            <mxRectangle width="80" height="73" as="alternateBounds" />
          </mxGeometry>
        </mxCell>
        <mxCell id="tTsTYngYizAKFm76DYmf-281" style="edgeStyle=none;curved=1;rounded=0;orthogonalLoop=1;jettySize=auto;html=1;exitX=0;exitY=0.5;exitDx=0;exitDy=0;fontSize=12;startSize=8;endSize=8;entryX=0.5;entryY=0;entryDx=0;entryDy=0;" edge="1" parent="1" source="tTsTYngYizAKFm76DYmf-205" target="tTsTYngYizAKFm76DYmf-336">
          <mxGeometry relative="1" as="geometry">
            <mxPoint x="600" y="-214.2307692307695" as="targetPoint" />
            <Array as="points">
              <mxPoint x="660" y="10" />
            </Array>
          </mxGeometry>
        </mxCell>
        <mxCell id="tTsTYngYizAKFm76DYmf-283" value="&lt;font style=&quot;font-size: 20px;&quot;&gt;1&lt;/font&gt;" style="edgeLabel;html=1;align=center;verticalAlign=middle;resizable=0;points=[];fontSize=12;" vertex="1" connectable="0" parent="tTsTYngYizAKFm76DYmf-281">
          <mxGeometry x="-0.3141" y="23" relative="1" as="geometry">
            <mxPoint x="-10" y="-5" as="offset" />
          </mxGeometry>
        </mxCell>
        <mxCell id="tTsTYngYizAKFm76DYmf-288" value="Studenti" style="shape=table;startSize=30;container=1;collapsible=0;childLayout=tableLayout;strokeColor=default;fontSize=16;" vertex="1" parent="1">
          <mxGeometry x="-190" y="310" width="210" height="468" as="geometry" />
        </mxCell>
        <mxCell id="tTsTYngYizAKFm76DYmf-298" style="shape=tableRow;horizontal=0;startSize=0;swimlaneHead=0;swimlaneBody=0;strokeColor=inherit;top=0;left=0;bottom=0;right=0;collapsible=0;dropTarget=0;fillColor=none;points=[[0,0.5],[1,0.5]];portConstraint=eastwest;fontSize=16;" vertex="1" parent="tTsTYngYizAKFm76DYmf-288">
          <mxGeometry y="30" width="210" height="73" as="geometry" />
        </mxCell>
        <mxCell id="tTsTYngYizAKFm76DYmf-299" value="Id_corso_laurea" style="shape=partialRectangle;html=1;whiteSpace=wrap;connectable=0;strokeColor=inherit;overflow=hidden;fillColor=none;top=0;left=0;bottom=0;right=0;pointerEvents=1;fontSize=16;" vertex="1" parent="tTsTYngYizAKFm76DYmf-298">
          <mxGeometry width="130" height="73" as="geometry">
            <mxRectangle width="130" height="73" as="alternateBounds" />
          </mxGeometry>
        </mxCell>
        <mxCell id="tTsTYngYizAKFm76DYmf-300" value="FK" style="shape=partialRectangle;html=1;whiteSpace=wrap;connectable=0;strokeColor=inherit;overflow=hidden;fillColor=none;top=0;left=0;bottom=0;right=0;pointerEvents=1;fontSize=16;" vertex="1" parent="tTsTYngYizAKFm76DYmf-298">
          <mxGeometry x="130" width="80" height="73" as="geometry">
            <mxRectangle width="80" height="73" as="alternateBounds" />
          </mxGeometry>
        </mxCell>
        <mxCell id="tTsTYngYizAKFm76DYmf-289" style="shape=tableRow;horizontal=0;startSize=0;swimlaneHead=0;swimlaneBody=0;strokeColor=inherit;top=0;left=0;bottom=0;right=0;collapsible=0;dropTarget=0;fillColor=none;points=[[0,0.5],[1,0.5]];portConstraint=eastwest;fontSize=16;" vertex="1" parent="tTsTYngYizAKFm76DYmf-288">
          <mxGeometry y="103" width="210" height="73" as="geometry" />
        </mxCell>
        <mxCell id="tTsTYngYizAKFm76DYmf-290" value="ID_Studente" style="shape=partialRectangle;html=1;whiteSpace=wrap;connectable=0;strokeColor=inherit;overflow=hidden;fillColor=none;top=0;left=0;bottom=0;right=0;pointerEvents=1;fontSize=16;" vertex="1" parent="tTsTYngYizAKFm76DYmf-289">
          <mxGeometry width="130" height="73" as="geometry">
            <mxRectangle width="130" height="73" as="alternateBounds" />
          </mxGeometry>
        </mxCell>
        <mxCell id="tTsTYngYizAKFm76DYmf-291" value="ID" style="shape=partialRectangle;html=1;whiteSpace=wrap;connectable=0;strokeColor=inherit;overflow=hidden;fillColor=none;top=0;left=0;bottom=0;right=0;pointerEvents=1;fontSize=16;" vertex="1" parent="tTsTYngYizAKFm76DYmf-289">
          <mxGeometry x="130" width="80" height="73" as="geometry">
            <mxRectangle width="80" height="73" as="alternateBounds" />
          </mxGeometry>
        </mxCell>
        <mxCell id="tTsTYngYizAKFm76DYmf-292" style="shape=tableRow;horizontal=0;startSize=0;swimlaneHead=0;swimlaneBody=0;strokeColor=inherit;top=0;left=0;bottom=0;right=0;collapsible=0;dropTarget=0;fillColor=none;points=[[0,0.5],[1,0.5]];portConstraint=eastwest;fontSize=16;" vertex="1" parent="tTsTYngYizAKFm76DYmf-288">
          <mxGeometry y="176" width="210" height="73" as="geometry" />
        </mxCell>
        <mxCell id="tTsTYngYizAKFm76DYmf-293" value="Nome" style="shape=partialRectangle;html=1;whiteSpace=wrap;connectable=0;strokeColor=inherit;overflow=hidden;fillColor=none;top=0;left=0;bottom=0;right=0;pointerEvents=1;fontSize=16;" vertex="1" parent="tTsTYngYizAKFm76DYmf-292">
          <mxGeometry width="130" height="73" as="geometry">
            <mxRectangle width="130" height="73" as="alternateBounds" />
          </mxGeometry>
        </mxCell>
        <mxCell id="tTsTYngYizAKFm76DYmf-294" value="" style="shape=partialRectangle;html=1;whiteSpace=wrap;connectable=0;strokeColor=inherit;overflow=hidden;fillColor=none;top=0;left=0;bottom=0;right=0;pointerEvents=1;fontSize=16;" vertex="1" parent="tTsTYngYizAKFm76DYmf-292">
          <mxGeometry x="130" width="80" height="73" as="geometry">
            <mxRectangle width="80" height="73" as="alternateBounds" />
          </mxGeometry>
        </mxCell>
        <mxCell id="tTsTYngYizAKFm76DYmf-295" style="shape=tableRow;horizontal=0;startSize=0;swimlaneHead=0;swimlaneBody=0;strokeColor=inherit;top=0;left=0;bottom=0;right=0;collapsible=0;dropTarget=0;fillColor=none;points=[[0,0.5],[1,0.5]];portConstraint=eastwest;fontSize=16;" vertex="1" parent="tTsTYngYizAKFm76DYmf-288">
          <mxGeometry y="249" width="210" height="73" as="geometry" />
        </mxCell>
        <mxCell id="tTsTYngYizAKFm76DYmf-296" value="Cognome" style="shape=partialRectangle;html=1;whiteSpace=wrap;connectable=0;strokeColor=inherit;overflow=hidden;fillColor=none;top=0;left=0;bottom=0;right=0;pointerEvents=1;fontSize=16;" vertex="1" parent="tTsTYngYizAKFm76DYmf-295">
          <mxGeometry width="130" height="73" as="geometry">
            <mxRectangle width="130" height="73" as="alternateBounds" />
          </mxGeometry>
        </mxCell>
        <mxCell id="tTsTYngYizAKFm76DYmf-297" value="" style="shape=partialRectangle;html=1;whiteSpace=wrap;connectable=0;strokeColor=inherit;overflow=hidden;fillColor=none;top=0;left=0;bottom=0;right=0;pointerEvents=1;fontSize=16;" vertex="1" parent="tTsTYngYizAKFm76DYmf-295">
          <mxGeometry x="130" width="80" height="73" as="geometry">
            <mxRectangle width="80" height="73" as="alternateBounds" />
          </mxGeometry>
        </mxCell>
        <mxCell id="tTsTYngYizAKFm76DYmf-304" style="shape=tableRow;horizontal=0;startSize=0;swimlaneHead=0;swimlaneBody=0;strokeColor=inherit;top=0;left=0;bottom=0;right=0;collapsible=0;dropTarget=0;fillColor=none;points=[[0,0.5],[1,0.5]];portConstraint=eastwest;fontSize=16;" vertex="1" parent="tTsTYngYizAKFm76DYmf-288">
          <mxGeometry y="322" width="210" height="73" as="geometry" />
        </mxCell>
        <mxCell id="tTsTYngYizAKFm76DYmf-305" value="Matricola" style="shape=partialRectangle;html=1;whiteSpace=wrap;connectable=0;strokeColor=inherit;overflow=hidden;fillColor=none;top=0;left=0;bottom=0;right=0;pointerEvents=1;fontSize=16;" vertex="1" parent="tTsTYngYizAKFm76DYmf-304">
          <mxGeometry width="130" height="73" as="geometry">
            <mxRectangle width="130" height="73" as="alternateBounds" />
          </mxGeometry>
        </mxCell>
        <mxCell id="tTsTYngYizAKFm76DYmf-306" style="shape=partialRectangle;html=1;whiteSpace=wrap;connectable=0;strokeColor=inherit;overflow=hidden;fillColor=none;top=0;left=0;bottom=0;right=0;pointerEvents=1;fontSize=16;" vertex="1" parent="tTsTYngYizAKFm76DYmf-304">
          <mxGeometry x="130" width="80" height="73" as="geometry">
            <mxRectangle width="80" height="73" as="alternateBounds" />
          </mxGeometry>
        </mxCell>
        <mxCell id="tTsTYngYizAKFm76DYmf-301" style="shape=tableRow;horizontal=0;startSize=0;swimlaneHead=0;swimlaneBody=0;strokeColor=inherit;top=0;left=0;bottom=0;right=0;collapsible=0;dropTarget=0;fillColor=none;points=[[0,0.5],[1,0.5]];portConstraint=eastwest;fontSize=16;" vertex="1" parent="tTsTYngYizAKFm76DYmf-288">
          <mxGeometry y="395" width="210" height="73" as="geometry" />
        </mxCell>
        <mxCell id="tTsTYngYizAKFm76DYmf-302" value="Email" style="shape=partialRectangle;html=1;whiteSpace=wrap;connectable=0;strokeColor=inherit;overflow=hidden;fillColor=none;top=0;left=0;bottom=0;right=0;pointerEvents=1;fontSize=16;" vertex="1" parent="tTsTYngYizAKFm76DYmf-301">
          <mxGeometry width="130" height="73" as="geometry">
            <mxRectangle width="130" height="73" as="alternateBounds" />
          </mxGeometry>
        </mxCell>
        <mxCell id="tTsTYngYizAKFm76DYmf-303" style="shape=partialRectangle;html=1;whiteSpace=wrap;connectable=0;strokeColor=inherit;overflow=hidden;fillColor=none;top=0;left=0;bottom=0;right=0;pointerEvents=1;fontSize=16;" vertex="1" parent="tTsTYngYizAKFm76DYmf-301">
          <mxGeometry x="130" width="80" height="73" as="geometry">
            <mxRectangle width="80" height="73" as="alternateBounds" />
          </mxGeometry>
        </mxCell>
        <mxCell id="tTsTYngYizAKFm76DYmf-308" style="edgeStyle=none;curved=1;rounded=0;orthogonalLoop=1;jettySize=auto;html=1;exitX=0;exitY=0.5;exitDx=0;exitDy=0;entryX=0.5;entryY=0;entryDx=0;entryDy=0;fontSize=12;startSize=8;endSize=8;" edge="1" parent="1" source="tTsTYngYizAKFm76DYmf-191" target="tTsTYngYizAKFm76DYmf-335">
          <mxGeometry relative="1" as="geometry">
            <Array as="points">
              <mxPoint x="80" y="-40" />
            </Array>
          </mxGeometry>
        </mxCell>
        <mxCell id="tTsTYngYizAKFm76DYmf-313" value="&lt;font style=&quot;font-size: 20px;&quot;&gt;1&lt;/font&gt;" style="edgeLabel;html=1;align=center;verticalAlign=middle;resizable=0;points=[];fontSize=12;" vertex="1" connectable="0" parent="tTsTYngYizAKFm76DYmf-308">
          <mxGeometry x="-0.3592" y="13" relative="1" as="geometry">
            <mxPoint x="-1" as="offset" />
          </mxGeometry>
        </mxCell>
        <mxCell id="tTsTYngYizAKFm76DYmf-314" value="Iscrizioni_Esami" style="shape=table;startSize=30;container=1;collapsible=0;childLayout=tableLayout;strokeColor=default;fontSize=16;" vertex="1" parent="1">
          <mxGeometry x="290" y="470" width="210" height="249" as="geometry" />
        </mxCell>
        <mxCell id="tTsTYngYizAKFm76DYmf-315" style="shape=tableRow;horizontal=0;startSize=0;swimlaneHead=0;swimlaneBody=0;strokeColor=inherit;top=0;left=0;bottom=0;right=0;collapsible=0;dropTarget=0;fillColor=none;points=[[0,0.5],[1,0.5]];portConstraint=eastwest;fontSize=16;" vertex="1" parent="tTsTYngYizAKFm76DYmf-314">
          <mxGeometry y="30" width="210" height="73" as="geometry" />
        </mxCell>
        <mxCell id="tTsTYngYizAKFm76DYmf-316" value="ID_Esame" style="shape=partialRectangle;html=1;whiteSpace=wrap;connectable=0;strokeColor=inherit;overflow=hidden;fillColor=none;top=0;left=0;bottom=0;right=0;pointerEvents=1;fontSize=16;" vertex="1" parent="tTsTYngYizAKFm76DYmf-315">
          <mxGeometry width="130" height="73" as="geometry">
            <mxRectangle width="130" height="73" as="alternateBounds" />
          </mxGeometry>
        </mxCell>
        <mxCell id="tTsTYngYizAKFm76DYmf-317" value="FK" style="shape=partialRectangle;html=1;whiteSpace=wrap;connectable=0;strokeColor=inherit;overflow=hidden;fillColor=none;top=0;left=0;bottom=0;right=0;pointerEvents=1;fontSize=16;" vertex="1" parent="tTsTYngYizAKFm76DYmf-315">
          <mxGeometry x="130" width="80" height="73" as="geometry">
            <mxRectangle width="80" height="73" as="alternateBounds" />
          </mxGeometry>
        </mxCell>
        <mxCell id="tTsTYngYizAKFm76DYmf-318" style="shape=tableRow;horizontal=0;startSize=0;swimlaneHead=0;swimlaneBody=0;strokeColor=inherit;top=0;left=0;bottom=0;right=0;collapsible=0;dropTarget=0;fillColor=none;points=[[0,0.5],[1,0.5]];portConstraint=eastwest;fontSize=16;" vertex="1" parent="tTsTYngYizAKFm76DYmf-314">
          <mxGeometry y="103" width="210" height="73" as="geometry" />
        </mxCell>
        <mxCell id="tTsTYngYizAKFm76DYmf-319" value="ID_Studente" style="shape=partialRectangle;html=1;whiteSpace=wrap;connectable=0;strokeColor=inherit;overflow=hidden;fillColor=none;top=0;left=0;bottom=0;right=0;pointerEvents=1;fontSize=16;" vertex="1" parent="tTsTYngYizAKFm76DYmf-318">
          <mxGeometry width="130" height="73" as="geometry">
            <mxRectangle width="130" height="73" as="alternateBounds" />
          </mxGeometry>
        </mxCell>
        <mxCell id="tTsTYngYizAKFm76DYmf-320" value="FK" style="shape=partialRectangle;html=1;whiteSpace=wrap;connectable=0;strokeColor=inherit;overflow=hidden;fillColor=none;top=0;left=0;bottom=0;right=0;pointerEvents=1;fontSize=16;" vertex="1" parent="tTsTYngYizAKFm76DYmf-318">
          <mxGeometry x="130" width="80" height="73" as="geometry">
            <mxRectangle width="80" height="73" as="alternateBounds" />
          </mxGeometry>
        </mxCell>
        <mxCell id="tTsTYngYizAKFm76DYmf-321" style="shape=tableRow;horizontal=0;startSize=0;swimlaneHead=0;swimlaneBody=0;strokeColor=inherit;top=0;left=0;bottom=0;right=0;collapsible=0;dropTarget=0;fillColor=none;points=[[0,0.5],[1,0.5]];portConstraint=eastwest;fontSize=16;" vertex="1" parent="tTsTYngYizAKFm76DYmf-314">
          <mxGeometry y="176" width="210" height="73" as="geometry" />
        </mxCell>
        <mxCell id="tTsTYngYizAKFm76DYmf-322" value="Voto" style="shape=partialRectangle;html=1;whiteSpace=wrap;connectable=0;strokeColor=inherit;overflow=hidden;fillColor=none;top=0;left=0;bottom=0;right=0;pointerEvents=1;fontSize=16;" vertex="1" parent="tTsTYngYizAKFm76DYmf-321">
          <mxGeometry width="130" height="73" as="geometry">
            <mxRectangle width="130" height="73" as="alternateBounds" />
          </mxGeometry>
        </mxCell>
        <mxCell id="tTsTYngYizAKFm76DYmf-323" value="" style="shape=partialRectangle;html=1;whiteSpace=wrap;connectable=0;strokeColor=inherit;overflow=hidden;fillColor=none;top=0;left=0;bottom=0;right=0;pointerEvents=1;fontSize=16;" vertex="1" parent="tTsTYngYizAKFm76DYmf-321">
          <mxGeometry x="130" width="80" height="73" as="geometry">
            <mxRectangle width="80" height="73" as="alternateBounds" />
          </mxGeometry>
        </mxCell>
        <mxCell id="tTsTYngYizAKFm76DYmf-328" style="edgeStyle=none;curved=1;rounded=0;orthogonalLoop=1;jettySize=auto;html=1;exitX=0;exitY=0.5;exitDx=0;exitDy=0;entryX=1;entryY=0.5;entryDx=0;entryDy=0;fontSize=12;startSize=8;endSize=8;" edge="1" parent="1" source="tTsTYngYizAKFm76DYmf-324" target="tTsTYngYizAKFm76DYmf-315">
          <mxGeometry relative="1" as="geometry" />
        </mxCell>
        <mxCell id="tTsTYngYizAKFm76DYmf-332" value="&lt;font style=&quot;font-size: 20px;&quot;&gt;N&lt;/font&gt;" style="edgeLabel;html=1;align=center;verticalAlign=middle;resizable=0;points=[];fontSize=12;" vertex="1" connectable="0" parent="tTsTYngYizAKFm76DYmf-328">
          <mxGeometry x="-0.0672" y="6" relative="1" as="geometry">
            <mxPoint as="offset" />
          </mxGeometry>
        </mxCell>
        <mxCell id="tTsTYngYizAKFm76DYmf-324" value="" style="rhombus;whiteSpace=wrap;html=1;" vertex="1" parent="1">
          <mxGeometry x="610" y="440" width="80" height="80" as="geometry" />
        </mxCell>
        <mxCell id="tTsTYngYizAKFm76DYmf-327" style="edgeStyle=none;curved=1;rounded=0;orthogonalLoop=1;jettySize=auto;html=1;exitX=1;exitY=0.5;exitDx=0;exitDy=0;entryX=0;entryY=0.5;entryDx=0;entryDy=0;fontSize=12;startSize=8;endSize=8;" edge="1" parent="1" source="tTsTYngYizAKFm76DYmf-325" target="tTsTYngYizAKFm76DYmf-318">
          <mxGeometry relative="1" as="geometry" />
        </mxCell>
        <mxCell id="tTsTYngYizAKFm76DYmf-333" value="&lt;font style=&quot;font-size: 20px;&quot;&gt;N&lt;/font&gt;" style="edgeLabel;html=1;align=center;verticalAlign=middle;resizable=0;points=[];fontSize=12;" vertex="1" connectable="0" parent="tTsTYngYizAKFm76DYmf-327">
          <mxGeometry x="-0.2731" y="5" relative="1" as="geometry">
            <mxPoint y="1" as="offset" />
          </mxGeometry>
        </mxCell>
        <mxCell id="tTsTYngYizAKFm76DYmf-325" value="" style="rhombus;whiteSpace=wrap;html=1;" vertex="1" parent="1">
          <mxGeometry x="130" y="504" width="80" height="80" as="geometry" />
        </mxCell>
        <mxCell id="tTsTYngYizAKFm76DYmf-326" style="edgeStyle=none;curved=1;rounded=0;orthogonalLoop=1;jettySize=auto;html=1;exitX=1;exitY=0.5;exitDx=0;exitDy=0;entryX=0;entryY=0.5;entryDx=0;entryDy=0;fontSize=12;startSize=8;endSize=8;" edge="1" parent="1" source="tTsTYngYizAKFm76DYmf-289" target="tTsTYngYizAKFm76DYmf-325">
          <mxGeometry relative="1" as="geometry" />
        </mxCell>
        <mxCell id="tTsTYngYizAKFm76DYmf-334" value="&lt;font style=&quot;font-size: 20px;&quot;&gt;N&lt;/font&gt;" style="edgeLabel;html=1;align=center;verticalAlign=middle;resizable=0;points=[];fontSize=12;" vertex="1" connectable="0" parent="tTsTYngYizAKFm76DYmf-326">
          <mxGeometry x="-0.161" y="-2" relative="1" as="geometry">
            <mxPoint y="-1" as="offset" />
          </mxGeometry>
        </mxCell>
        <mxCell id="tTsTYngYizAKFm76DYmf-329" style="edgeStyle=none;curved=1;rounded=0;orthogonalLoop=1;jettySize=auto;html=1;exitX=0;exitY=0.5;exitDx=0;exitDy=0;entryX=1;entryY=0.5;entryDx=0;entryDy=0;fontSize=12;startSize=8;endSize=8;" edge="1" parent="1" source="tTsTYngYizAKFm76DYmf-272" target="tTsTYngYizAKFm76DYmf-324">
          <mxGeometry relative="1" as="geometry">
            <Array as="points">
              <mxPoint x="780" y="470" />
            </Array>
          </mxGeometry>
        </mxCell>
        <mxCell id="tTsTYngYizAKFm76DYmf-331" value="&lt;font style=&quot;font-size: 20px;&quot;&gt;N&lt;/font&gt;" style="edgeLabel;html=1;align=center;verticalAlign=middle;resizable=0;points=[];fontSize=12;" vertex="1" connectable="0" parent="tTsTYngYizAKFm76DYmf-329">
          <mxGeometry x="-0.2564" y="35" relative="1" as="geometry">
            <mxPoint x="-24" y="-17" as="offset" />
          </mxGeometry>
        </mxCell>
        <mxCell id="tTsTYngYizAKFm76DYmf-335" value="" style="rhombus;whiteSpace=wrap;html=1;" vertex="1" parent="1">
          <mxGeometry x="70" y="90" width="80" height="80" as="geometry" />
        </mxCell>
        <mxCell id="tTsTYngYizAKFm76DYmf-336" value="" style="rhombus;whiteSpace=wrap;html=1;" vertex="1" parent="1">
          <mxGeometry x="600" y="90" width="80" height="80" as="geometry" />
        </mxCell>
      </root>
    </mxGraphModel>
  </diagram>
</mxfile>
